<?xml version="1.0" encoding="utf-8"?>
<!-- Generator: Adobe Illustrator 22.1.0, SVG Export Plug-In . SVG Version: 6.00 Build 0)  -->
<svg version="1.1" id="Layer_1" xmlns="http://www.w3.org/2000/svg" xmlns:xlink="http://www.w3.org/1999/xlink" x="0px" y="0px"
	 viewBox="0 0 612 612" style="enable-background:new 0 0 612 612;" xml:space="preserve">
<style type="text/css">
	.st0{fill:#FFFFFF;}
</style>
<path class="st0" d="M510,6c25.5,0,49.6,10,67.8,28.2S606,76.5,606,102v408c0,25.5-10,49.6-28.2,67.8S535.5,606,510,606H102
	c-25.5,0-49.6-10-67.8-28.2S6,535.5,6,510V102c0-25.5,10-49.6,28.2-67.8S76.5,6,102,6H510 M510,0H102C45.9,0,0,45.9,0,102v408
	c0,56.1,45.9,102,102,102h408c56.1,0,102-45.9,102-102V102C612,45.9,566.1,0,510,0z"/>
<g>
	<path class="st0" d="M462,189.6l-52,52c11.2,18.4,17.6,39.6,17.6,62.8c0,66.4-53.6,120-120,120c-22.8,0-44.4-6.4-62.8-17.6l-52,52
		c32,23.6,71.6,38,114.4,38c106,0,192-86,192-192C500,261.2,486,221.6,462,189.6z"/>
	<path class="st0" d="M187.9,304.1c0-66.4,53.6-120,120-120c22.8,0,44.4,6.4,62.8,17.6l52-52c-32-23.6-71.6-38-114.4-38
		c-106,0-192,86-192,192c0,42.8,14,82.4,38,114.4l52-52C194.3,348.5,187.9,326.9,187.9,304.1z"/>
	<circle class="st0" cx="500" cy="112" r="48"/>
	<circle class="st0" cx="115.1" cy="496.9" r="48.1"/>
</g>
</svg>
